<svg xmlns="http://www.w3.org/2000/svg" width="21.112" height="23.336" viewBox="0 0 21.112 23.336"><defs><style>.a{fill:#ffb000;}</style></defs><path class="a" d="M123.53,78.447a.556.556,0,0,0,.349-.987,10.521,10.521,0,0,0-3.763-1.948,6.112,6.112,0,1,0-5.717,0,10.553,10.553,0,0,0-7.7,10.155,9.967,9.967,0,0,0,.076,1.19.554.554,0,0,0,1.1-.13,8.91,8.91,0,0,1-.065-1.06,9.441,9.441,0,0,1,15.377-7.347.542.542,0,0,0,.344.125Zm-11.275-8.334a5,5,0,1,1,5,5A5,5,0,0,1,112.255,70.113Zm15,13.335h-2.222V81.226a.555.555,0,1,0-1.11,0v2.222H121.7a.555.555,0,1,0,0,1.11h2.219v2.222a.555.555,0,1,0,1.11,0V84.557h2.224a.555.555,0,0,0,0-1.11Z" transform="translate(-106.7 -64)"/></svg>