<svg xmlns="http://www.w3.org/2000/svg" width="40.645" height="42.097" viewBox="0 0 40.645 42.097"><defs><style>.a{fill:#2bd8c7;}</style></defs><path class="a" d="M98.839,94.476a5.806,5.806,0,0,0-5.683,4.618l-14.439,0c-.379-.253-.61-1.979-.746-3.165h4.191a3.616,3.616,0,1,0-.669-2.9H77.58c-.527-2.864-1.739-5.806-5.541-5.806H65.452a1.452,1.452,0,0,0,0,2.9H72.04c1.466,0,2.138.9,2.572,2.9H65.452a1.452,1.452,0,0,0,0,2.9h9.6c.3,2.725.707,6.071,3.731,6.071H93.212c.036,0,.065-.017.1-.02a5.795,5.795,0,1,0,5.526-7.5Zm0,8.71a2.9,2.9,0,1,1,2.9-2.9A2.9,2.9,0,0,1,98.839,103.186ZM65.452,84.315H82.894a1.326,1.326,0,0,0,.171-.035,5.806,5.806,0,1,0,0-2.834,1.326,1.326,0,0,0-.171-.035H65.452a1.452,1.452,0,0,0,0,2.9ZM88.677,79.96a2.9,2.9,0,1,1-2.9,2.9A2.9,2.9,0,0,1,88.677,79.96ZM65.452,78.771H72.04c4.909,0,5.516-4.095,5.879-6.541.3-2.064.489-2.431.859-2.431H92.322a3.616,3.616,0,1,0-.669-2.9H78.779c-3.006,0-3.443,2.954-3.732,4.909-.427,2.887-.819,4.063-3.006,4.063H65.452a1.452,1.452,0,1,0,0,2.9Z" transform="translate(-64 -63.992)"/></svg>