<svg xmlns="http://www.w3.org/2000/svg" width="14.518" height="17.558" viewBox="0 0 14.518 17.558"><defs><style>.a{fill:#333;}</style></defs><path class="a" d="M170.262,59.125V56.942a.6.6,0,0,1,.6-.6h11.1a.6.6,0,0,1,.6.6v2.183h1.113V56.418a1.2,1.2,0,0,0-1.194-1.193H170.343a1.2,1.2,0,0,0-1.193,1.193v2.707h1.113Zm12.292,9.563v2.377a.6.6,0,0,1-.6.6h-11.1a.6.6,0,0,1-.6-.6V68.687h-1.113v2.9a1.2,1.2,0,0,0,1.193,1.194h12.131a1.2,1.2,0,0,0,1.194-1.194v-2.9h-1.113Zm-10.812-1.769h-1.132V62.652a3.916,3.916,0,0,1-1.462.858V62.483a3.275,3.275,0,0,0,.962-.55,2.088,2.088,0,0,0,.713-.944h.918v5.929Zm6.317-1.051v1.052h-3.967a2.734,2.734,0,0,1,.387-1.13,7.483,7.483,0,0,1,1.273-1.417,8.032,8.032,0,0,0,.939-.967,1.246,1.246,0,0,0,.233-.693.788.788,0,0,0-.2-.582.865.865,0,0,0-1.126.01,1.1,1.1,0,0,0-.242.709l-1.128-.112a1.85,1.85,0,0,1,.632-1.341,2.122,2.122,0,0,1,1.329-.407,1.921,1.921,0,0,1,1.374.471,1.545,1.545,0,0,1,.5,1.172,2.042,2.042,0,0,1-.143.759,3.093,3.093,0,0,1-.453.756,7.3,7.3,0,0,1-.741.754c-.357.327-.583.545-.678.652a1.95,1.95,0,0,0-.232.314h2.247Zm1.685-.515,1.1-.133a1.039,1.039,0,0,0,.281.64.774.774,0,0,0,.556.221.764.764,0,0,0,.59-.265,1.031,1.031,0,0,0,.24-.717.961.961,0,0,0-.23-.677.731.731,0,0,0-.56-.25,1.967,1.967,0,0,0-.52.085l.125-.922a.993.993,0,0,0,.7-.2.71.71,0,0,0,.242-.562.609.609,0,0,0-.648-.652.682.682,0,0,0-.5.2.95.95,0,0,0-.249.588l-1.043-.177a2.344,2.344,0,0,1,.328-.856,1.484,1.484,0,0,1,.612-.5,2.056,2.056,0,0,1,.88-.183,1.756,1.756,0,0,1,1.337.532,1.346,1.346,0,0,1-.435,2.223,1.376,1.376,0,0,1,.812.488,1.414,1.414,0,0,1,.3.914,1.773,1.773,0,0,1-.568,1.325,2.121,2.121,0,0,1-2.743.087A1.813,1.813,0,0,1,179.745,65.351Z" transform="translate(-169.149 -55.224)"/></svg>