<svg xmlns="http://www.w3.org/2000/svg" width="17.269" height="17.254" viewBox="0 0 17.269 17.254"><defs><style>.a{fill:#7ecbff;}</style></defs><path class="a" d="M5.4,16.053a1.079,1.079,0,0,0,1.08,1.078H15.11a1.079,1.079,0,0,0,1.08-1.078V7.427a1.079,1.079,0,0,0-1.08-1.078H14.031V5.271H15.11a2.157,2.157,0,0,1,2.16,2.157v8.626a2.155,2.155,0,0,1-2.159,2.156H6.478a2.155,2.155,0,0,1-2.159-2.155V14.976H5.4v1.078ZM2.159.956h8.634a2.157,2.157,0,0,1,2.159,2.157v8.625a2.156,2.156,0,0,1-2.159,2.155H2.157A2.156,2.156,0,0,1,0,11.738V3.113A2.157,2.157,0,0,1,2.159.957ZM1.079,11.739a1.078,1.078,0,0,0,1.079,1.078h8.635a1.079,1.079,0,0,0,1.079-1.078V3.113a1.079,1.079,0,0,0-1.079-1.078H2.157A1.078,1.078,0,0,0,1.079,3.113Z" transform="translate(0 -0.956)"/></svg>