<svg xmlns="http://www.w3.org/2000/svg" width="18.804" height="14.103" viewBox="0 0 18.804 14.103"><defs><style>.a{fill:#333;}</style></defs><path class="a" d="M101.94,192.94H87.214a.931.931,0,0,0-.233.029l7.133,7.133a.47.47,0,0,0,.665,0Zm1.017.313L97.213,199l5.794,5.794a.937.937,0,0,0,.191-.568V193.88a.939.939,0,0,0-.24-.628Zm-.909,11.91-5.5-5.5-1.1,1.1a1.41,1.41,0,0,1-1.995,0l-1.1-1.1L86.9,205.109a.946.946,0,0,0,.315.054h14.835Zm-15.76-.774L91.68,199l-5.371-5.371a.941.941,0,0,0-.035.254v10.342A.928.928,0,0,0,86.288,204.389ZM87.214,192h15.044a1.88,1.88,0,0,1,1.88,1.88v10.342a1.88,1.88,0,0,1-1.88,1.88H87.214a1.88,1.88,0,0,1-1.88-1.88V193.88A1.88,1.88,0,0,1,87.214,192Z" transform="translate(-85.333 -192)"/></svg>