<svg xmlns="http://www.w3.org/2000/svg" width="43.482" height="35.861" viewBox="0 0 43.482 35.861"><defs><style>.a{fill:#2bd8c7;}</style></defs><g transform="translate(-111.2 -181.4)"><path class="a" d="M153.744,207.388l-8.327-22.826-.005-.022a4.882,4.882,0,0,0-4.557-3.141H123.877a4.874,4.874,0,0,0-4.638,3.358l-.005.011-7.111,22.647a6.506,6.506,0,0,0,5.587,9.845h30.464a6.506,6.506,0,0,0,5.571-9.872ZM121.81,185.6a2.17,2.17,0,0,1,2.061-1.486H140.85a2.183,2.183,0,0,1,2.023,1.389l6.911,18.937a6.554,6.554,0,0,0-1.611-.2H117.709a6.6,6.6,0,0,0-1.833.26Zm26.363,28.945H117.709a3.8,3.8,0,1,1,0-7.594h30.464a3.8,3.8,0,0,1,0,7.594Z"/><path class="a" d="M702.844,689.844m-1.844,0A1.844,1.844,0,1,0,702.844,688,1.844,1.844,0,0,0,701,689.844Z" transform="translate(-557.807 -479.12)"/><path class="a" d="M305.986,272.057a4.664,4.664,0,0,0,3.217,1.28H321.37a5.646,5.646,0,0,0,4.02-1.665,5.708,5.708,0,0,0,1.66-4.242,5.594,5.594,0,0,0-1.774-3.889,5.7,5.7,0,0,0-2.8-1.459,6.724,6.724,0,0,0-6.629-5.582h-1.1a6.7,6.7,0,0,0-6.607,7.741,4.607,4.607,0,0,0-3.586,4.649A4.528,4.528,0,0,0,305.986,272.057Zm1.833-4.66a1.883,1.883,0,0,1,1.34-.553,1.886,1.886,0,0,0,1.8-2.457,4.032,4.032,0,0,1-.184-1.193,3.982,3.982,0,0,1,3.982-3.982h1.1a4,4,0,0,1,4.009,3.976v.022a1.454,1.454,0,0,0,1.454,1.465,3.046,3.046,0,0,1,2.1.835,2.968,2.968,0,0,1-2.05,5.115H309.2a1.928,1.928,0,0,1-1.937-1.823A1.863,1.863,0,0,1,307.819,267.4Z" transform="translate(-182.863 -71.026)"/></g></svg>