<svg xmlns="http://www.w3.org/2000/svg" xmlns:xlink="http://www.w3.org/1999/xlink" width="15" height="15" viewBox="0 0 15 15"><defs><style>.a{fill:#fff;}.b{clip-path:url(#a);}.c{fill:#0077fe;}</style><clipPath id="a"><rect class="a" width="15" height="15" transform="translate(-2503 -171)"/></clipPath></defs><g class="b" transform="translate(2503 171)"><g transform="translate(-2502.968 -171)"><path class="c" d="M70.919,81.552a7.5,7.5,0,1,1,7.484-7.5,7.5,7.5,0,0,1-7.484,7.5Zm2.415-1.747a6.313,6.313,0,0,0,3.323-3.331,6.22,6.22,0,0,0,0-4.844A6.313,6.313,0,0,0,73.334,68.3a6.176,6.176,0,0,0-4.829,0,6.313,6.313,0,0,0-3.324,3.331,6.22,6.22,0,0,0,0,4.844,6.313,6.313,0,0,0,3.324,3.331,6.177,6.177,0,0,0,4.829,0Z" transform="translate(-63.435 -66.552)"/><path class="c" d="M288.422,303.882m.444-.444,5.843-5.843a.554.554,0,0,1,.887,0h0a.554.554,0,0,1,0,.887l-5.844,5.844a.554.554,0,0,1-.887,0h0a.554.554,0,0,1,0-.887Z" transform="translate(-284.666 -293.519)"/><path class="c" d="M304.943,308.057m-.444-.444-5.843-5.843a.554.554,0,0,1,0-.887h0a.554.554,0,0,1,.887,0l5.843,5.843a.554.554,0,0,1,0,.887h0a.554.554,0,0,1-.887,0Z" transform="translate(-294.509 -296.748)"/></g></g></svg>