<svg xmlns="http://www.w3.org/2000/svg" xmlns:xlink="http://www.w3.org/1999/xlink" width="15" height="15" viewBox="0 0 15 15"><defs><style>.a{fill:#fff;}.b{clip-path:url(#a);}</style><clipPath id="a"><rect class="a" width="15" height="15" transform="translate(-2363 -206)"/></clipPath></defs><g class="b" transform="translate(2363 206)"><g transform="translate(-2363 -206)"><path class="a" d="M199.911,207.411a7.5,7.5,0,1,1,7.5-7.5,7.5,7.5,0,0,1-7.5,7.5Zm0-13.593A6.094,6.094,0,1,0,206,199.912a6.094,6.094,0,0,0-6.094-6.094Z" transform="translate(-192.411 -192.411)"/><path class="a" d="M387.607,484.815l2.3,2.3-.994.994-2.3-2.3Z" transform="translate(-382.071 -477.976)"/><path class="a" d="M446.233,399.853l.994.994-4.282,4.284-.994-.994Z" transform="translate(-436.114 -395.002)"/></g></g></svg>