<svg xmlns="http://www.w3.org/2000/svg" width="19.412" height="19.413" viewBox="0 0 19.412 19.413"><defs><style>.a{fill:#333;}</style></defs><path class="a" d="M4.206,1.756A9.724,9.724,0,0,0,.085,10.287a.863.863,0,1,0,1.723-.1A7.979,7.979,0,0,1,15.48,4.131l-1.346.724,4.184,2.586.15-4.916-1.416.762A9.712,9.712,0,0,0,4.206,1.756ZM1.076,16.888l1.416-.76A9.725,9.725,0,0,0,14.343,18.27a9.663,9.663,0,0,0,3.321-2.916,9.719,9.719,0,0,0,1.8-6.216.863.863,0,0,0-1.723.1,7.98,7.98,0,0,1-13.674,6.04l1.346-.724L1.226,11.972Z" transform="translate(-0.067 0)"/></svg>