<svg xmlns="http://www.w3.org/2000/svg" width="21.876" height="21.876" viewBox="0 0 21.876 21.876"><defs><style>.a{fill:#333;}</style></defs><path class="a" d="M83.235,64.951a2.829,2.829,0,0,1,2.916,2.737v16.4a2.829,2.829,0,0,1-2.916,2.737H67.191a2.829,2.829,0,0,1-2.916-2.738v-16.4a2.829,2.829,0,0,1,2.916-2.737H83.235Zm1.354,18.307V68.52a2.091,2.091,0,0,0-2.169-2.006H68.007a2.1,2.1,0,0,0-2.169,2.006V83.258a2.091,2.091,0,0,0,2.169,2.007H82.419a2.1,2.1,0,0,0,2.169-2.007Zm-12.94-8.32h4a.2.2,0,0,0,.2-.2V71.885a.781.781,0,1,1,1.563,0v8.008a.781.781,0,1,1-1.563,0V76.7a.2.2,0,0,0-.2-.2h-4a.2.2,0,0,0-.2.2v3.2a.781.781,0,1,1-1.563,0V71.885a.781.781,0,1,1,1.563,0v2.858A.2.2,0,0,0,71.649,74.938Zm8.106-1.1a.781.781,0,0,1,.781.781v5.274a.781.781,0,0,1-1.563,0V74.62A.781.781,0,0,1,79.755,73.838Zm0-2.735a.781.781,0,0,1,.781.781v.586a.781.781,0,0,1-1.563,0v-.586A.781.781,0,0,1,79.755,71.1Z" transform="translate(-64.275 -64.951)"/></svg>