<svg xmlns="http://www.w3.org/2000/svg" width="20.265" height="20.265" viewBox="0 0 20.265 20.265"><defs><style>.a{fill:#333;}</style></defs><path class="a" d="M151.271,145.2a.921.921,0,1,1,0-1.842h2.763a2.714,2.714,0,0,1,2.763,2.763v2.763a.921.921,0,1,1-1.842,0v-2.763a.87.87,0,0,0-.921-.921h-2.763Zm3.684,12.9a.921.921,0,1,1,1.842,0v2.763a2.714,2.714,0,0,1-2.763,2.763h-2.763a.921.921,0,1,1,0-1.842h2.763a.87.87,0,0,0,.921-.921Zm-12.9,3.684a.921.921,0,0,1,0,1.842H139.3a2.714,2.714,0,0,1-2.763-2.763V158.1a.921.921,0,0,1,1.842,0v2.763a.87.87,0,0,0,.921.921Zm-3.684-12.9a.921.921,0,1,1-1.842,0v-2.763a2.714,2.714,0,0,1,2.763-2.763h2.763a.921.921,0,0,1,0,1.842H139.3a.87.87,0,0,0-.921.921Z" transform="translate(-136.533 -143.36)"/><path class="a" d="M379.151,287.262a3.684,3.684,0,1,1,3.684-3.684A3.637,3.637,0,0,1,379.151,287.262Zm0-1.842a1.842,1.842,0,1,0-1.842-1.842A1.848,1.848,0,0,0,379.151,285.42Z" transform="translate(-369.019 -276.209)"/><path class="a" d="M312.727,484.693a5.543,5.543,0,0,1,5.527,5.527v.921a.87.87,0,0,1-.921.921h-9.211a.87.87,0,0,1-.921-.921v-.921A5.543,5.543,0,0,1,312.727,484.693Zm3.684,5.527a3.684,3.684,0,0,0-7.369,0Z" transform="translate(-302.594 -475.482)"/></svg>