<svg xmlns="http://www.w3.org/2000/svg" width="21.105" height="21.79" viewBox="0 0 21.105 21.79"><defs><style>.a,.b{fill:#333;stroke:#333;}.a{stroke-width:0.5px;}</style></defs><g transform="translate(0.5 0.25)"><path class="a" d="M416.775,107.169h-1.508a1.945,1.945,0,0,1-1.767-2.082v-4.806a1.945,1.945,0,0,1,1.767-2.082h1.508a1.945,1.945,0,0,1,1.767,2.082v4.806A1.944,1.944,0,0,1,416.775,107.169Zm-1.506-7.482a.555.555,0,0,0-.5.594v4.806a.555.555,0,0,0,.5.594h1.508a.555.555,0,0,0,.5-.594v-4.806a.555.555,0,0,0-.5-.594Zm.753,19.814" transform="translate(-405.97 -98.2)"/><path class="b" d="M126.452,216.961a10.054,10.054,0,0,1-5.617-18.391.632.632,0,0,1,.7,1.049,8.788,8.788,0,1,0,9.824,0,.632.632,0,0,1,.7-1.049,10.054,10.054,0,0,1-5.617,18.391Zm0,0" transform="translate(-116.4 -195.92)"/></g></svg>