<svg xmlns="http://www.w3.org/2000/svg" width="13.261" height="13.597" viewBox="0 0 13.261 13.597"><defs><style>.a{fill:#333;}</style></defs><path class="a" d="M128.384,104.467a2.228,2.228,0,1,1-1.126,4.152,5.964,5.964,0,0,1-5.4.586l-.157-.063.411-.988a4.9,4.9,0,0,0,4.363-.307,2.228,2.228,0,0,1,1.907-3.38Zm-7.631-5.819.58.9a4.893,4.893,0,0,0-2.165,4.958,2.228,2.228,0,1,1-1,.463,5.961,5.961,0,0,1,2.471-6.246l.111-.073Zm7.631,6.888a1.159,1.159,0,1,0,1.159,1.159A1.159,1.159,0,0,0,128.384,105.537Zm-8.806,0a1.159,1.159,0,1,0,1.159,1.159A1.159,1.159,0,0,0,119.578,105.537Zm4.4-9.537a2.228,2.228,0,0,1,2.225,2.116,5.957,5.957,0,0,1,3.719,5.578l0,.125-1.069-.034a4.888,4.888,0,0,0-2.862-4.6A2.228,2.228,0,1,1,123.981,96Zm0,1.07a1.159,1.159,0,1,0,1.159,1.159A1.159,1.159,0,0,0,123.981,97.07Z" transform="translate(-117.35 -96)"/></svg>