<svg xmlns="http://www.w3.org/2000/svg" width="13.261" height="14.466" viewBox="0 0 13.261 14.466"><defs><style>.a{fill:#333;}</style></defs><path class="a" d="M146.49,110.236a3.315,3.315,0,0,1,3.315,3.314V116.3a.565.565,0,0,1-.565.565h-12.13a.565.565,0,0,1-.565-.565v-2.75a3.315,3.315,0,0,1,3.314-3.315Zm0,1.13h-6.631a2.185,2.185,0,0,0-2.182,2.072l0,.113v2.185h11v-2.185a2.185,2.185,0,0,0-2.072-2.182l-.113,0Zm-3.269-8.966a3.617,3.617,0,1,1-3.617,3.617,3.617,3.617,0,0,1,3.617-3.617Zm0,1.13a2.486,2.486,0,1,0,2.486,2.486A2.486,2.486,0,0,0,143.221,103.53Z" transform="translate(-136.544 -102.4)"/></svg>