<svg xmlns="http://www.w3.org/2000/svg" width="13.919" height="14" viewBox="0 0 13.919 14"><defs><style>.a,.b{fill:#333;}.b{stroke:#333;stroke-width:0.4px;}</style></defs><g transform="translate(-59.904 -73.216)"><path class="a" d="M146.944,422.912h.977v2.776h-.977Z" transform="translate(-85.656 -344.137)"/><path class="a" d="M157.363,87.216h-8.3a2.122,2.122,0,0,1-2.116-2.116V83.871h.977V85.1a1.143,1.143,0,0,0,1.14,1.14h8.3a1.143,1.143,0,0,0,1.14-1.14V75.332a1.143,1.143,0,0,0-1.14-1.14h-8.3a1.143,1.143,0,0,0-1.14,1.14v1.3h-.977v-1.3a2.122,2.122,0,0,1,2.116-2.116h8.3a2.123,2.123,0,0,1,2.116,2.116V85.1A2.117,2.117,0,0,1,157.363,87.216Z" transform="translate(-85.656)"/><path class="a" d="M62.834,335.076H60.392a.488.488,0,1,1,0-.977h2.442a.49.49,0,0,1,.488.488A.485.485,0,0,1,62.834,335.076Zm0-4.884H60.392a.488.488,0,1,1,0-.977h2.442a.49.49,0,0,1,.488.488A.485.485,0,0,1,62.834,330.193Z" transform="translate(0 -251.93)"/><g transform="translate(-187.868 -12.386)"><path class="b" d="M255.556,96.5c-.621,0-2.956-3.349-2.956-4.846a2.956,2.956,0,1,1,5.913,0C258.513,93.155,256.177,96.5,255.556,96.5Zm0-7.316a2.473,2.473,0,0,0-2.47,2.47c0,1.272,1.973,3.955,2.47,4.333.5-.379,2.47-3.06,2.47-4.333A2.474,2.474,0,0,0,255.556,89.187Z" transform="translate(0)"/><path class="b" d="M429.236,244.171a1.235,1.235,0,1,1,1.236-1.235A1.237,1.237,0,0,1,429.236,244.171Zm0-1.985a.748.748,0,1,0,.748.748A.749.749,0,0,0,429.236,242.186Z" transform="translate(-173.648 -151.472)"/></g></g></svg>