<svg xmlns="http://www.w3.org/2000/svg" width="13.508" height="13.128" viewBox="0 0 13.508 13.128"><defs><style>.a{fill:#333;}</style></defs><g transform="translate(-102.4 -99.594)"><path class="a" d="M110.2,99.79l-4.841,3.38h-1.871a1.087,1.087,0,0,0-1.087,1.087v3.8a1.087,1.087,0,0,0,1.087,1.087h1.871l4.841,3.38a1.087,1.087,0,0,0,1.709-.891V100.68a1.087,1.087,0,0,0-1.709-.891Zm-4.219,4.271,4.841-3.38v10.955l-4.841-3.38a1.086,1.086,0,0,0-.622-.2h-1.871v-3.8h1.871a1.087,1.087,0,0,0,.622-.2Z"/><path class="a" d="M837.205,290.133a7.223,7.223,0,0,1,.889,3.592,7.38,7.38,0,0,1-.755,3.349l-.06.112-.953-.521a6.681,6.681,0,0,0,0-5.887l-.055-.1Z" transform="translate(-722.186 -187.507)"/></g></svg>