<svg xmlns="http://www.w3.org/2000/svg" width="15.743" height="12.597" viewBox="0 0 15.743 12.597"><defs><style>.a{fill:#fff;}</style></defs><g transform="translate(-32 -127.899)"><path class="a" d="M192.525,512.589m-.525,0a.525.525,0,1,0,.525-.525A.525.525,0,0,0,192,512.589Z" transform="translate(-157.376 -377.865)"/><path class="a" d="M201.446,513.114h1.05a.525.525,0,1,0,0-1.05h-1.05a.525.525,0,1,0,0,1.05Zm-8.921,1.05a.525.525,0,0,0,0,1.05h4.2a.525.525,0,0,0,0-1.05Z" transform="translate(-157.376 -377.865)"/><path class="a" d="M46.694,320.064H44.016a2.6,2.6,0,0,1,0,1.05h2.677v7.347H33.05v-7.347h1.627a2.65,2.65,0,0,1,0-1.05H33.05a1.05,1.05,0,0,0-1.05,1.05v7.347a1.05,1.05,0,0,0,1.05,1.05H46.694a1.05,1.05,0,0,0,1.05-1.05v-7.347A1.05,1.05,0,0,0,46.694,320.064Z" transform="translate(0 -189.014)"/><path class="a" d="M261.5,134.754a3.673,3.673,0,1,0-5.018-1.345,3.673,3.673,0,0,0,5.018,1.345Zm-3.149-5.454a2.625,2.625,0,1,1-.962,3.586A2.625,2.625,0,0,1,258.351,129.3Zm3.149,5.488a.506.506,0,0,0-.193.7l1.574,2.655a.535.535,0,0,0,.718.187.5.5,0,0,0,.193-.7l-1.574-2.655A.535.535,0,0,0,261.5,134.789Z" transform="translate(-220.316 0)"/></g></svg>