<svg xmlns="http://www.w3.org/2000/svg" width="25.367" height="23" viewBox="0 0 25.367 23"><defs><style>.a{fill:#ffb000;stroke:#ffb000;stroke-width:0.5px;}</style></defs><path class="a" d="M84.13,119.037H78.8a.591.591,0,0,0,0,1.182H84.13a.591.591,0,1,0,0-1.182Zm4.146-7.7a.592.592,0,0,0,.591-.591v-2.961a1.184,1.184,0,0,0-1.185-1.185h-22.5A1.184,1.184,0,0,0,64,107.785v15.4a1.184,1.184,0,0,0,1.185,1.185h7.843l2.379,4.141a1.185,1.185,0,0,0,2.054,0l2.379-4.144h7.843a1.184,1.184,0,0,0,1.185-1.185v-7.693a.591.591,0,1,0-1.182,0v7.105a.592.592,0,0,1-.591.591H79.839a1.186,1.186,0,0,0-1.027.594l-2.379,4.144-2.379-4.144a1.186,1.186,0,0,0-1.027-.594H65.776a.592.592,0,0,1-.591-.591v-14.21a.592.592,0,0,1,.591-.591H87.091a.592.592,0,0,1,.591.591v2.367A.592.592,0,0,0,88.276,111.338Zm-4.146-.591H72.881a.591.591,0,0,0,0,1.182H84.13a.591.591,0,1,0,0-1.182Zm0,4.144H75.843a.591.591,0,1,0,0,1.182h8.29a.591.591,0,1,0,0-1.182Zm-14.8-4.735a1.185,1.185,0,1,0,1.185,1.185A1.184,1.184,0,0,0,69.329,110.155Zm0,4.144a1.185,1.185,0,1,0,1.185,1.185A1.184,1.184,0,0,0,69.329,114.3Zm0,4.144a1.185,1.185,0,1,0,1.185,1.185A1.184,1.184,0,0,0,69.329,118.443Z" transform="translate(-63.75 -106.35)"/></svg>