<svg xmlns="http://www.w3.org/2000/svg" width="24.497" height="24.5" viewBox="0 0 24.497 24.5"><defs><style>.a{fill:#ffb000;stroke:#ffb000;stroke-width:0.5px;}</style></defs><path class="a" d="M115.742,122.5V111.361a1.715,1.715,0,0,1,1.712-1.715h3.428a1.715,1.715,0,0,1,1.715,1.712V122.5Zm5.571-11.139a.427.427,0,0,0-.428-.428h-3.428a.431.431,0,0,0-.431.425v9.858h4.287v-9.855Zm-14.139-11.145a1.711,1.711,0,0,1,1.7-1.715h3.436a1.711,1.711,0,0,1,1.71,1.71V122.5h-6.85Zm1.284,21h4.281V100.218a.428.428,0,0,0-.425-.428h-3.431a.43.43,0,0,0-.425.428ZM98.6,107.074a1.717,1.717,0,0,1,1.712-1.715h3.428a1.71,1.71,0,0,1,1.715,1.71V122.5H98.6Zm1.287,14.139h4.287V107.074a.429.429,0,0,0-.428-.428h-3.428a.431.431,0,0,0-.431.425Z" transform="translate(-98.35 -98.25)"/></svg>