<svg xmlns="http://www.w3.org/2000/svg" width="23.342" height="20.815" viewBox="0 0 23.342 20.815"><defs><style>.a{fill:#333;}</style></defs><g transform="translate(-64.1 -129.3)"><path class="a" d="M506,862.158a.861.861,0,1,0,.861-.858A.859.859,0,0,0,506,862.158Z" transform="translate(-430.376 -712.911)"/><path class="a" d="M84.96,136.065v-.115a3.338,3.338,0,0,0-3.338-3.338H75.775l-2.151-2.892a.761.761,0,0,0-.712-.417l0,0H67.438a3.338,3.338,0,0,0-3.338,3.338v14.137a3.338,3.338,0,0,0,3.338,3.338h5.6v-.01a.858.858,0,1,0,0-1.716l-.081,0h-4.72a1.671,1.671,0,0,1-1.669-1.669,1.693,1.693,0,0,1,.052-.417l1.906-7.364.005,0a1.67,1.67,0,0,1,1.619-1.28l.005,0H84.039c.034,0,.065,0,.1,0a1.671,1.671,0,0,1,1.669,1.669,1.71,1.71,0,0,1-.078.506v0l-1.891,7.3c0,.016-.008.029-.01.044l-.039.151-.013.01a1.841,1.841,0,0,1-.143.287H83.6a1.578,1.578,0,0,1-.248.336,1.659,1.659,0,0,1-1.132.446c-.034,0-.068,0-.1,0H80.013c-.026,0-.055,0-.081,0a.858.858,0,1,0,0,1.716v.005h2.394l.013-.01a3.336,3.336,0,0,0,3.213-2.477l.005-.005,1.768-7.445a3.391,3.391,0,0,0,.117-.881A3.344,3.344,0,0,0,84.96,136.065Zm-14.9-.128a3.343,3.343,0,0,0-3.273,2.678l-.013.01-.991,4.18V132.63a1.671,1.671,0,0,1,1.669-1.669h4.968l2.157,2.9a.84.84,0,0,0,.821.412h6.22a1.671,1.671,0,0,1,1.669,1.661Z"/></g></svg>