<svg xmlns="http://www.w3.org/2000/svg" width="23.6" height="22.804" viewBox="0 0 23.6 22.804"><defs><style>.a{fill:#ffb000;}</style></defs><g transform="translate(1.647)"><path class="a" d="M241.214,319.362v-5.321h1.52v3.8l8.361,3.041v-3.8h1.52v6.081Zm-2.28-12.162h1.52V311h-1.52Z" transform="translate(-235.222 -300.359)"/><path class="a" d="M5.231,14.189v-.38a4.561,4.561,0,1,1,0-7.857v-.38L21.954,0V19.763ZM20.434,2.28,5.231,7.6a2.812,2.812,0,0,0-2.28-.76,3.04,3.04,0,0,0,0,6.081,2.812,2.812,0,0,0,2.28-.76l15.2,5.321V2.28Z" transform="translate(0)"/></g></svg>