<svg xmlns="http://www.w3.org/2000/svg" width="21.712" height="24" viewBox="0 0 21.712 24"><defs><style>.a{fill:#ffb000;}</style></defs><g transform="translate(-110.594 -68.267)"><path class="a" d="M205.482,68.267a8.406,8.406,0,0,0-8.516,8.276,8.072,8.072,0,0,0,1.4,4.557l.089.127.052.086.042.065a1.351,1.351,0,0,0,.093.122l.021.023,5.415,6.3a1.847,1.847,0,0,0,2.8,0l5.386-6.3-.036.039a1.363,1.363,0,0,0,.145-.179l.042-.064c.017-.027.05-.083.049-.081a8.18,8.18,0,0,0,1.51-4.674A8.392,8.392,0,0,0,205.482,68.267Zm0,1.847a6.544,6.544,0,0,1,6.651,6.434,6.368,6.368,0,0,1-1.19,3.646l-.08.126-5.383,6.3-5.416-6.3-.052-.086-.027-.039a6.228,6.228,0,0,1-1.172-3.646A6.559,6.559,0,0,1,205.482,70.113Z" transform="translate(-84.036 0)"/><path class="a" d="M128.806,710.205a.923.923,0,0,1,1.224.271l.039.061,1.985,3.4a1.847,1.847,0,0,1-1.482,2.774l-.123,0-18.018-.1a1.847,1.847,0,0,1-1.641-2.674l.058-.107,1.892-3.227a.923.923,0,0,1,1.628.87l-.034.064-1.892,3.226,18.018.1-1.985-3.4A.923.923,0,0,1,128.806,710.205Z" transform="translate(0 -624.45)"/><path class="a" d="M379.16,243.951a3.694,3.694,0,1,0,3.694,3.694,3.694,3.694,0,0,0-3.694-3.694Zm0,1.847a1.847,1.847,0,1,1-1.848,1.847A1.847,1.847,0,0,1,379.16,245.8Z" transform="translate(-257.707 -170.932)"/></g></svg>