<svg xmlns="http://www.w3.org/2000/svg" width="21.861" height="21.727" viewBox="0 0 21.861 21.727"><defs><style>.a{fill:#333;}</style></defs><path class="a" d="M54.1,50.392a6.851,6.851,0,0,1,4.334,5.793.836.836,0,1,1-1.665.147,5.1,5.1,0,0,0-10.168,0,.836.836,0,1,1-1.665-.147,6.847,6.847,0,0,1,4.513-5.861,3.534,3.534,0,1,1,4.651.067ZM42.421,56.627a.836.836,0,1,1,0,1.671H41.084a4.688,4.688,0,0,1-4.513-4.847V41.418a4.688,4.688,0,0,1,4.513-4.847H52.115a4.688,4.688,0,0,1,4.513,4.847.836.836,0,0,1-1.671,0,3.023,3.023,0,0,0-2.841-3.176H41.084a3.023,3.023,0,0,0-2.841,3.176V53.452a3.023,3.023,0,0,0,2.841,3.176ZM39.914,42.421H46.6a.836.836,0,0,1,0,1.671H39.914a.836.836,0,0,1,0-1.671Zm0,5.014h3.343a.836.836,0,1,1,0,1.671H39.914a.836.836,0,0,1,0-1.671Zm11.891,2.134a1.9,1.9,0,1,0-1.864-1.9A1.884,1.884,0,0,0,51.806,49.569Z" transform="translate(-36.571 -36.571)"/></svg>