<svg xmlns="http://www.w3.org/2000/svg" width="22.623" height="22.623" viewBox="0 0 22.623 22.623"><defs><style>.a{fill:#333;}</style></defs><g transform="translate(-44.8 -44.8)"><path class="a" d="M320.485,327.371a2.652,2.652,0,0,1-1.911-.775l-2.066-2.066a2.744,2.744,0,0,1,0-3.822l2.066-2.066a2.744,2.744,0,0,1,3.822,0l2.066,2.066a2.745,2.745,0,0,1,0,3.822L322.4,326.6A2.883,2.883,0,0,1,320.485,327.371Zm0-8.058a1.028,1.028,0,0,0-.826.362l-2.066,2.066a1.219,1.219,0,0,0-.362.826,1.028,1.028,0,0,0,.362.826l2.066,2.066a1.257,1.257,0,0,0,1.653,0l2.066-2.066a1.219,1.219,0,0,0,.362-.826,1.028,1.028,0,0,0-.362-.826l-2.066-2.066A1.219,1.219,0,0,0,320.485,319.313Z" transform="translate(-264.373 -266.456)"/><path class="a" d="M56.112,67.423A11.312,11.312,0,1,1,67.423,56.112,11.308,11.308,0,0,1,56.112,67.423Zm0-21.074a9.762,9.762,0,1,0,9.762,9.762A9.788,9.788,0,0,0,56.112,46.35Z" transform="translate(0 0)"/></g></svg>