<svg xmlns="http://www.w3.org/2000/svg" width="21.593" height="21.593" viewBox="0 0 21.593 21.593"><defs><style>.a{fill:#333;}</style></defs><g transform="translate(-12.8 -12.8)"><path class="a" d="M31.348,12.8h-15.5A3.047,3.047,0,0,0,12.8,15.845v15.5a3.047,3.047,0,0,0,3.045,3.045H26.753a.831.831,0,1,0,0-1.661H15.845a1.386,1.386,0,0,1-1.384-1.384v-15.5a1.386,1.386,0,0,1,1.384-1.384h15.5a1.386,1.386,0,0,1,1.384,1.384v15.5a1.386,1.386,0,0,1-1.384,1.384H31.1a.831.831,0,0,0,0,1.661h.248a3.047,3.047,0,0,0,3.045-3.045v-15.5A3.047,3.047,0,0,0,31.348,12.8Z" transform="translate(0 0)"/><path class="a" d="M205.288,219.261h8.432a.831.831,0,1,0,0-1.661h-8.432a.831.831,0,1,0,0,1.661Zm10.52,3.876H205.272a.831.831,0,0,0,0,1.661h10.535a.831.831,0,0,0,0-1.661Zm-10.52,5.537a.831.831,0,1,0,0,1.661h4.174a.831.831,0,1,0,0-1.661ZM217,217.6h-.085a.8.8,0,0,0-.787.831.869.869,0,0,0,.874.831.831.831,0,1,0,0-1.661Z" transform="translate(-187.497 -200.371)"/></g></svg>