<svg xmlns="http://www.w3.org/2000/svg" width="13.522" height="13.695" viewBox="0 0 13.522 13.695"><defs><style>.a{fill:#9f9f9f;}</style></defs><g transform="translate(0 0)"><path class="a" d="M408.41,212.348a3.369,3.369,0,1,1,4.755,4.726l-.173.173.741.736.188-.168a4.407,4.407,0,0,0-6.256-6.208l-.168.173.736.736Z" transform="translate(-402.196 -210.304)"/><path class="a" d="M147.634,219.154l.736.736.173-.168a2.654,2.654,0,0,0-3.759-3.749l-.173.173.741.736.168-.168a1.655,1.655,0,0,1,2.281,0,1.6,1.6,0,0,1,.014,2.271Zm3.494,4.374c-.2-.14-2.406-1.6-2.656-1.776a1.3,1.3,0,0,0-1.285.058c-.188.1-.7.39-1.03.582a16.36,16.36,0,0,1-1.776-1.6,15.942,15.942,0,0,1-1.583-1.809c.192-.337.481-.852.577-1.035a1.323,1.323,0,0,0,.053-1.3c-.168-.265-1.607-2.464-1.761-2.676a1.193,1.193,0,0,0-1.641-.154s-2.036,1.444-2.007,2.406c.072,2.315,2.262,5,4.091,6.838s4.485,4.057,6.814,4.129c.934,0,2.348-2.012,2.363-2.031A1.184,1.184,0,0,0,151.128,223.528Zm-8.754-6.093c-.135.26-.707,1.266-.732,1.314l-.164.284.168.284a13.427,13.427,0,0,0,1.925,2.281,13.832,13.832,0,0,0,2.257,1.954l.284.168.313-.183c.164-.091,1.035-.6,1.275-.722a.558.558,0,0,1,.207-.072c.356.226,2.151,1.444,2.493,1.665a.245.245,0,0,1-.053.125,7.045,7.045,0,0,1-1.444,1.54c-1.925-.077-4.331-2.1-6-3.792s-3.7-4.129-3.754-6.03a6.565,6.565,0,0,1,1.53-1.492.279.279,0,0,1,.12-.053c.265.39,1.444,2.161,1.651,2.517A.62.62,0,0,1,142.375,217.436Z" transform="translate(-138.019 -213.496)"/></g></svg>