<svg xmlns="http://www.w3.org/2000/svg" width="36.413" height="40.84" viewBox="0 0 36.413 40.84"><defs><style>.a{fill:#2bd8c7;stroke:#2bd8c7;}</style></defs><g transform="translate(-101.9 -50.7)"><path class="a" d="M136.928,54.52,120.438,51.2h-.664l-16.489,3.32a1.078,1.078,0,0,0-.885,1.107V70.013c0,10.956,8.743,18.813,17.485,21.026h.443c8.632-2.213,17.485-10.071,17.485-21.026V55.627A1.078,1.078,0,0,0,136.928,54.52ZM135.6,70.013c0,9.628-7.747,16.71-15.493,18.813-7.747-2.1-15.493-9.075-15.493-18.813v-13.5l15.493-3.1,15.493,3.1Z"/><path class="a" d="M335.013,261.533v3.32a2.22,2.22,0,0,0-2.213,2.213v4.427a4.44,4.44,0,0,0,4.427,4.427h6.64a4.44,4.44,0,0,0,4.427-4.427v-4.427a2.22,2.22,0,0,0-2.213-2.213v-3.32a5.533,5.533,0,1,0-11.067,0Zm11.067,9.96a2.22,2.22,0,0,1-2.213,2.213h-2.213v-1.439a2.142,2.142,0,0,0,1.107-1.881,2.213,2.213,0,0,0-4.427,0,2.142,2.142,0,0,0,1.107,1.881v1.439h-2.213a2.22,2.22,0,0,1-2.213-2.213v-4.427H346.08Zm-2.213-9.96v3.32h-6.64v-3.32a3.32,3.32,0,1,1,6.64,0Z" transform="translate(-220.44 -195.947)"/></g></svg>