<svg xmlns="http://www.w3.org/2000/svg" width="16.812" height="17.651" viewBox="0 0 16.812 17.651"><defs><style>.a{fill:#333;stroke:#333;stroke-width:0.3px;}</style></defs><path class="a" d="M90.992,77.018c-.351,0-.42-.351-.42-.7V74.639c0-.348.069-.77.42-.77s.42.421.42.77v1.679c0,.348-.069.7-.42.7ZM97.343,80.8h-12.7a1.9,1.9,0,0,1-1.905-1.889V71.981A1.889,1.889,0,0,1,84.7,70.162H97.289a1.889,1.889,0,0,1,1.959,1.819v6.927A1.9,1.9,0,0,1,97.343,80.8ZM84.975,71c-.833,0-1.353.428-1.4,1.119v6.717A1.786,1.786,0,0,0,84.7,79.957H97.289a1.785,1.785,0,0,0,1.119-1.119V72.121c0-.761-.332-1.119-1.119-1.119Zm10.462-.21c-.351,0-.387,0-.387-.35V68.2c0-2.14-2.384-3.918-4.2-3.918A4,4,0,0,0,86.934,68.2v1.959c0,.348-.037.63-.387.63s-.452-.282-.452-.63V68.2a4.544,4.544,0,0,1,4.758-4.758A4.919,4.919,0,0,1,95.89,68.2v2.239c0,.348-.1.35-.452.35Zm0,0" transform="translate(-82.586 -63.295)"/></svg>