<svg xmlns="http://www.w3.org/2000/svg" width="17.387" height="17.387" viewBox="0 0 17.387 17.387">
  <g id="zhanghu" transform="translate(0.1 0.1)">
    <path id="路径_154" data-name="路径 154" d="M237.653,257.817a2.447,2.447,0,1,0-2.858,0,4.716,4.716,0,0,0-3.279,4.485h.688a4.02,4.02,0,1,1,8.041,0h.688A4.716,4.716,0,0,0,237.653,257.817Zm-3.188-1.982a1.759,1.759,0,1,1,1.759,1.759A1.761,1.761,0,0,1,234.465,255.835Z" transform="translate(-227.63 -249.136)" fill="#5ec4f4" stroke="#5ec4f4" stroke-width="0.2"/>
    <path id="路径_155" data-name="路径 155" d="M8.594,0a8.594,8.594,0,1,0,8.594,8.594A8.594,8.594,0,0,0,8.594,0Zm0,16.5A7.906,7.906,0,1,1,16.5,8.594,7.915,7.915,0,0,1,8.594,16.5Z" fill="#5ec4f4" stroke="#5ec4f4" stroke-width="0.2"/>
  </g>
</svg>
