<svg xmlns="http://www.w3.org/2000/svg" width="35.037" height="21.474" viewBox="0 0 35.037 21.474"><defs><style>.a{fill:#2bd8c7;}</style></defs><path class="a" d="M7.172-125.8a14.853,14.853,0,0,1,20.691,0l.688.673a.706.706,0,0,1,.015,1l-.015.015-2.352,2.3a.371.371,0,0,1-.517,0l-.946-.927a10.362,10.362,0,0,0-14.435,0l-1.013.992a.371.371,0,0,1-.517,0l-2.352-2.3a.706.706,0,0,1-.015-1l.015-.015Zm25.556,4.763,2.093,2.05a.705.705,0,0,1,.016,1l-.016.016-9.44,9.243a.742.742,0,0,1-1.035,0l-6.7-6.56a.186.186,0,0,0-.259,0l-6.7,6.56a.742.742,0,0,1-1.035,0l-9.44-9.242a.706.706,0,0,1-.015-1l.015-.015,2.094-2.05a.742.742,0,0,1,1.035,0l6.7,6.559a.186.186,0,0,0,.259,0l6.7-6.56a.742.742,0,0,1,1.035,0l6.7,6.56a.186.186,0,0,0,.259,0l6.7-6.56a.742.742,0,0,1,1.035,0Z" transform="translate(0.001 130)"/></svg>